<svg width="184" height="32" fill="none" xmlns="http://www.w3.org/2000/svg"><path fill-rule="evenodd" clip-rule="evenodd" d="M141.252 15.993h5.604l1.011-2.07h10.332l1.014 2.07H184v-3.877h-1.677V1.279h-15.074v.903c0 5.161-.766 7.6-1.441 8.866-.332.624-.636.914-.804 1.04a.86.86 0 01-.149.092l-.696.129v3.5l-7.909-14.66h-6.711l-8.242 14.763V1.279h-15.229v.903c0 5.387-.757 7.792-1.47 8.977-.344.573-.663.649-.859.745a.955.955 0 01-.452.1h-.92v3.608l-8.395-7.115 8.337-7.218h-6.514l-6.116 5.343h-1.451V1.28h-4.739v14.714h4.739v-5.19h1.471l6.423 5.19h7.165c2.047 0 4.321-.81 5.563-2.84 1.105-1.808 1.721-4.222 1.803-8.057h6.087v10.897h4.512zm15.087-5.758l-2.958-5.139h-.997l-2.734 5.139h6.689zm13.961 1.881h7.467v-7.02h-6.087c-.067 3.103-.489 5.233-1.38 7.02z" fill="#353433"/><path d="M100.183 5.844l1.324.636V2.254l-.534-.243a14.47 14.47 0 00-5.788-1.25c-5.845 0-9.963 3.43-9.963 7.845 0 4.402 4.123 7.808 9.963 7.808 2.074 0 4.164-.51 5.786-1.242l.536-.241v-4.233l-1.322.632c-1.511.721-3.692 1.039-5 1.039-1.816 0-3.133-.47-3.976-1.132-.832-.653-1.249-1.676-1.249-2.63 0-.988.422-2.019 1.25-2.671.84-.663 2.157-1.129 3.975-1.129 1.31 0 3.49.313 4.998 1.037z" fill="#353433"/><path fill-rule="evenodd" clip-rule="evenodd" d="M84.302 8.606c0 4.437-4.628 7.808-10.134 7.808-5.817 0-10.116-3.389-10.116-7.808 0-4.433 4.293-7.844 10.116-7.844 5.511 0 10.134 3.393 10.134 7.844zm-15.512 0c0 1.772 1.706 3.763 5.378 3.763 3.675 0 5.396-1.994 5.396-3.763 0-1.825-1.724-3.799-5.396-3.799-1.819 0-3.18.467-4.065 1.139a3.371 3.371 0 00-1.313 2.66z" fill="#353433"/><path d="M53.09 5.361V16.03h4.737V5.361h6.439V1.316l-17.597-.151v4.046l6.42.15z" fill="#353433"/><path fill-rule="evenodd" clip-rule="evenodd" d="M47.001 8.606c0 4.42-4.3 7.808-10.134 7.808-5.817 0-10.116-3.389-10.116-7.808 0-4.433 4.294-7.844 10.116-7.844C42.706.762 47 4.172 47 8.606zm-15.512 0c0 1.772 1.706 3.763 5.378 3.763 3.675 0 5.396-1.994 5.396-3.763 0-1.825-1.724-3.799-5.396-3.799-1.819 0-3.18.467-4.065 1.139a3.372 3.372 0 00-1.313 2.66zM15.31 15.987c3.033-.117 5.505-.815 7.286-1.989 1.985-1.307 3.244-3.198 3.244-5.39 0-2.209-1.258-4.097-3.247-5.396-1.782-1.164-4.253-1.85-7.284-1.964V0H10.53v1.248c-3.034.117-5.505.816-7.286 1.99C1.259 4.544 0 6.434 0 8.627c0 2.208 1.258 4.096 3.246 5.396 1.782 1.164 4.254 1.849 7.284 1.963v1.17h4.78v-1.17zM10.53 5.088v7.06c-1.91-.107-3.247-.543-4.11-1.121-.962-.644-1.527-1.483-1.527-2.4 0-.918.565-1.762 1.53-2.41.862-.582 2.199-1.022 4.107-1.129zm8.89 1.12c-.864-.577-2.2-1.014-4.11-1.12v7.06c1.908-.108 3.244-.548 4.108-1.129.963-.649 1.529-1.493 1.529-2.41 0-.918-.565-1.756-1.527-2.4z" fill="#353433"/><path d="M43.218 30.24h-1.1v-.77c-1.106-.027-1.953-.33-2.54-.91a2.846 2.846 0 01-.88-2.1 2.948 2.948 0 01.82-2.05c.274-.287.634-.517 1.08-.69.447-.18.954-.277 1.52-.29v-.66h1.1v.66a4.471 4.471 0 011.52.28c.447.173.807.403 1.08.69a2.91 2.91 0 01.83 2.05c0 .387-.07.757-.21 1.11-.14.347-.346.663-.62.95-.273.28-.633.507-1.08.68a4.471 4.471 0 01-1.52.28v.77zm-1.1-1.74v-4.1c-.753.007-1.326.207-1.72.6-.38.387-.57.87-.57 1.45s.19 1.067.57 1.46c.38.38.954.577 1.72.59zm1.1-4.1v4.1c.767-.013 1.34-.21 1.72-.59.387-.387.58-.873.58-1.46 0-.58-.193-1.063-.58-1.45-.393-.393-.966-.593-1.72-.6zm7.3 3.96c.473.493 1.053.74 1.74.74.686 0 1.266-.247 1.74-.74.473-.507.71-1.127.71-1.86 0-.74-.237-1.357-.71-1.85a2.304 2.304 0 00-1.74-.75c-.687 0-1.267.25-1.74.75-.467.487-.7 1.103-.7 1.85 0 .747.233 1.367.7 1.86zm4.3.73c-.68.693-1.534 1.04-2.56 1.04-1.027 0-1.88-.347-2.56-1.04-.674-.707-1.01-1.57-1.01-2.59 0-1.027.336-1.887 1.01-2.58.68-.7 1.533-1.05 2.56-1.05 1.026 0 1.88.35 2.56 1.05.68.693 1.02 1.553 1.02 2.58 0 1.027-.34 1.89-1.02 2.59zm2.231-5.08V23h5.73v1.01h-2.32V30h-1.1v-5.99h-2.31zm8.77 4.35c.473.493 1.053.74 1.74.74s1.267-.247 1.74-.74c.473-.507.71-1.127.71-1.86 0-.74-.237-1.357-.71-1.85a2.303 2.303 0 00-1.74-.75c-.687 0-1.267.25-1.74.75-.467.487-.7 1.103-.7 1.85 0 .747.233 1.367.7 1.86zm4.3.73c-.68.693-1.533 1.04-2.56 1.04-1.027 0-1.88-.347-2.56-1.04-.673-.707-1.01-1.57-1.01-2.59 0-1.027.337-1.887 1.01-2.58.68-.7 1.533-1.05 2.56-1.05 1.027 0 1.88.35 2.56 1.05.68.693 1.02 1.553 1.02 2.58 0 1.027-.34 1.89-1.02 2.59zm4.409.91h-1.1v-7h1.12l2.27 3.15 2.25-3.15h1.1v7h-1.1v-5.32l-1.95 2.64h-.64l-1.95-2.64V30zm8.696 0h-1.17l3.06-7.04h1.06l3.06 7.04h-1.18l-.76-1.74h-3.32l-.75 1.74zm2.41-5.65l-1.28 2.94h2.56l-1.28-2.94zM92.221 30h-1.1v-7h4.9v1.01h-3.8V30zm4.957 0h-1.17l3.06-7.04h1.06l3.06 7.04h-1.18l-.76-1.74h-3.32l-.75 1.74zm2.41-5.65l-1.28 2.94h2.56l-1.28-2.94zm7.467 5.78c-.98 0-1.797-.2-2.45-.6v-1.08c.307.193.667.35 1.08.47.42.12.823.18 1.21.18.593 0 1.06-.11 1.4-.33.347-.227.52-.527.52-.9 0-.327-.157-.59-.47-.79-.313-.2-.727-.3-1.24-.3h-.87v-1.01h1c.427 0 .757-.083.99-.25a.802.802 0 00.35-.69c0-.293-.137-.52-.41-.68-.267-.167-.633-.25-1.1-.25-.747 0-1.467.17-2.16.51V23.4a4.784 4.784 0 012.22-.53c.76 0 1.373.173 1.84.52.467.347.7.807.7 1.38 0 .38-.113.693-.34.94a1.821 1.821 0 01-.75.51c.367.107.687.313.96.62.273.293.41.667.41 1.12 0 .627-.26 1.147-.78 1.56-.513.407-1.217.61-2.11.61zm6.039-.13h-.94v-7h1.1v5.14l3.85-5.14h.96v7h-1.1v-5.16l-3.87 5.16zm8.607 0h-1.1v-7h1.1v2.76h3.65V23h1.1v7h-1.1v-3.23h-3.65V30zm20.715-2.45h-3.1v-.68h3.1v.68zm-8.95 2.45h-1.08v-7h.96l3.95 5.07V23h1.08v7h-.93l-3.98-5.09V30zm7.4-7.13c.5 0 .914.163 1.24.49.327.327.49.73.49 1.21s-.163.883-.49 1.21c-.326.32-.74.48-1.24.48a1.71 1.71 0 01-1.23-.48 1.683 1.683 0 01-.48-1.21c0-.473.16-.877.48-1.21.327-.327.737-.49 1.23-.49zm0 2.66c.274 0 .497-.09.67-.27a.956.956 0 00.27-.69c0-.28-.086-.51-.26-.69-.173-.18-.4-.27-.68-.27a.863.863 0 00-.66.28.942.942 0 00-.26.68c0 .273.087.503.26.69.174.18.394.27.66.27zm6.107 4.47h-1.08v-5.82l-1.53.82v-1.07l1.65-.93h.96v7z" fill="#353433"/></svg>